<?xml version="1.0" standalone="yes"?>
<svg xmlns="http://www.w3.org/2000/svg" width="1536" height="1536">
<path style="fill:#133139; stroke:none;" d="M1082 1086L1082 1022L1082 1006C1082 1003.8 1082.47 1000.59 1080.97 998.742C1078.13 995.229 1069.85 997.267 1066 997.406C1055 997.803 1043.18 995.086 1033 991.139C1007.03 981.073 988.714 959.732 970.745 939.424C913.619 874.862 857.592 809.311 800.166 745C783.331 726.146 766.997 706.849 750.166 688C736.486 672.68 722.841 656.875 706 644.872C687.144 631.433 665.779 620.445 643 615.511C594.912 605.094 543.656 617.71 506 649.439C438.132 706.624 434.86 816.245 497.05 878.826C544.214 926.288 619.936 936.905 680 909.113C684.395 907.08 697.315 902.33 698.083 896.907C698.776 892.003 690.602 885.448 687.804 882C676.49 868.058 664.418 854.781 652.92 841C650.041 837.55 646.413 831.089 641.911 829.697C638.037 828.499 632.629 831.462 629 832.667C621.723 835.084 613.739 837.062 606 836.871C581.555 836.268 558.167 820.795 547.27 799C528.216 760.891 549.822 711.621 592 701.339C613.452 696.11 635.71 702.895 653 716.04C665.19 725.308 674.787 736.802 685.086 748C701.097 765.411 716.655 783.245 732.286 801L874.714 963C913.579 1007.16 949.567 1057.44 1008 1076.48C1032.04 1084.32 1056.9 1086 1082 1086M910 612.439C890.303 615.508 871.873 620.699 854 629.756C848.678 632.453 838.908 635.97 835.662 641.185C832.389 646.444 842.633 654.678 845.742 658.286C856.054 670.253 866.573 682.02 876.87 694C880.405 698.114 884.692 705.891 890.004 707.759C893.073 708.839 896.248 706.535 899 705.464C905.098 703.09 911.498 701.076 918 700.286C943.488 697.186 966.389 706.694 982.331 727C997.312 746.083 999.051 770.541 991.783 793C990.107 798.18 987.345 803.396 984.457 808C982.958 810.389 980.543 812.952 981.006 816C981.64 820.174 986.141 824.182 988.735 827.286C995.725 835.651 1002.95 843.816 1010.16 852C1016.05 858.693 1021.87 865.443 1027.91 872C1029.93 874.184 1032.64 878.793 1036.01 878.793C1038.81 878.793 1041.2 875.767 1043 873.995C1048.87 868.216 1053.79 861.853 1058.33 855C1077.69 825.816 1084.83 791.574 1083.99 757C1082.03 677.032 1007.82 612 930 612C923.416 612 916.521 611.423 910 612.439z"/>
</svg>
